<svg xmlns="http://www.w3.org/2000/svg" width="23.889" height="23.889" viewBox="0 0 23.889 23.889"><path d="M20.368,15.967a.747.747,0,0,1,0,1.057L15.889,21.5a.747.747,0,0,1-1.057,0l-2.24-2.24a.747.747,0,0,1,1.057-1.057l1.711,1.713,3.951-3.952a.747.747,0,0,1,1.057,0Z" transform="translate(-4.163 -5.298)" fill="#085e6f" fill-rule="evenodd"/><path d="M1.493,6.729V21.66a1.493,1.493,0,0,0,1.493,1.493H20.9A1.493,1.493,0,0,0,22.4,21.66V6.729ZM2.986,2.25A2.986,2.986,0,0,0,0,5.236V21.66a2.986,2.986,0,0,0,2.986,2.986H20.9a2.986,2.986,0,0,0,2.986-2.986V5.236A2.986,2.986,0,0,0,20.9,2.25Z" transform="translate(0 -0.757)" fill="#085e6f" fill-rule="evenodd"/><path d="M7.5,0a.747.747,0,0,1,.747.747v.747a.747.747,0,0,1-1.493,0V.747A.747.747,0,0,1,7.5,0ZM20.934,0a.747.747,0,0,1,.747.747v.747a.747.747,0,0,1-1.493,0V.747A.747.747,0,0,1,20.934,0Z" transform="translate(-2.271)" fill="#085e6f" fill-rule="evenodd"/></svg>