<svg xmlns="http://www.w3.org/2000/svg" width="52" height="51" viewBox="0 0 52 51"><ellipse cx="26" cy="25.5" rx="26" ry="25.5" fill="#bf9437"/><path d="M13.357,8.745a6.849,6.849,0,1,0,6.849,6.849A6.838,6.838,0,0,0,13.357,8.745Zm0,11.3a4.453,4.453,0,1,1,4.453-4.453,4.461,4.461,0,0,1-4.453,4.453ZM22.083,8.465a1.6,1.6,0,1,1-1.6-1.6A1.594,1.594,0,0,1,22.083,8.465Zm4.536,1.621a7.905,7.905,0,0,0-2.158-5.6,7.957,7.957,0,0,0-5.6-2.158c-2.205-.125-8.816-.125-11.021,0a7.946,7.946,0,0,0-5.6,2.152,7.931,7.931,0,0,0-2.158,5.6C-.037,12.286-.037,18.9.089,21.1a7.905,7.905,0,0,0,2.158,5.6,7.967,7.967,0,0,0,5.6,2.158c2.205.125,8.816.125,11.021,0a7.905,7.905,0,0,0,5.6-2.158,7.957,7.957,0,0,0,2.158-5.6c.125-2.205.125-8.81,0-11.015ZM23.77,23.468a4.508,4.508,0,0,1-2.539,2.539c-1.758.7-5.931.536-7.874.536s-6.121.155-7.874-.536a4.508,4.508,0,0,1-2.539-2.539c-.7-1.758-.536-5.931-.536-7.874s-.155-6.121.536-7.874A4.508,4.508,0,0,1,5.483,5.181c1.758-.7,5.931-.536,7.874-.536s6.121-.155,7.874.536A4.508,4.508,0,0,1,23.77,7.72c.7,1.758.536,5.931.536,7.874S24.467,21.715,23.77,23.468Z" transform="translate(12.923 9.906)" fill="#fff"/></svg>