<svg xmlns="http://www.w3.org/2000/svg" width="23.597" height="23.597" viewBox="0 0 23.597 23.597"><path d="M24.16,12.361a11.8,11.8,0,1,1-11.8-11.8A11.8,11.8,0,0,1,24.16,12.361Zm-11.482-7.9A6.162,6.162,0,0,0,7.133,7.5a.572.572,0,0,0,.129.773L8.913,9.522a.571.571,0,0,0,.793-.1c.85-1.078,1.433-1.7,2.726-1.7.972,0,2.174.626,2.174,1.568,0,.712-.588,1.078-1.548,1.616-1.119.627-2.6,1.408-2.6,3.362v.19a.571.571,0,0,0,.571.571h2.664a.571.571,0,0,0,.571-.571v-.063c0-1.354,3.958-1.41,3.958-5.075C18.222,6.557,15.359,4.464,12.678,4.464Zm-.317,11.8a2.188,2.188,0,1,0,2.188,2.188A2.191,2.191,0,0,0,12.361,16.262Z" transform="translate(-0.563 -0.563)" fill="#085e6f"/></svg>