<svg xmlns="http://www.w3.org/2000/svg" width="129.291" height="20.378" viewBox="0 0 129.291 20.378"><g transform="translate(-447.163 -885.813)"><path d="M10.945.708l-2.6,5.269-5.814.848A1.274,1.274,0,0,0,1.827,9l4.206,4.1-.995,5.79a1.273,1.273,0,0,0,1.847,1.341l5.2-2.734,5.2,2.734a1.274,1.274,0,0,0,1.847-1.341L18.14,13.1,22.346,9a1.274,1.274,0,0,0-.7-2.173l-5.814-.848L13.229.708a1.275,1.275,0,0,0-2.284,0Z" transform="translate(445.722 885.814)" fill="#d2cc29"/><path d="M10.945.708l-2.6,5.269-5.814.848A1.274,1.274,0,0,0,1.827,9l4.206,4.1-.995,5.79a1.273,1.273,0,0,0,1.847,1.341l5.2-2.734,5.2,2.734a1.274,1.274,0,0,0,1.847-1.341L18.14,13.1,22.346,9a1.274,1.274,0,0,0-.7-2.173l-5.814-.848L13.229.708a1.275,1.275,0,0,0-2.284,0Z" transform="translate(499.722 885.814)" fill="#d2cc29"/><path d="M10.945.708l-2.6,5.269-5.814.848A1.274,1.274,0,0,0,1.827,9l4.206,4.1-.995,5.79a1.273,1.273,0,0,0,1.847,1.341l5.2-2.734,5.2,2.734a1.274,1.274,0,0,0,1.847-1.341L18.14,13.1,22.346,9a1.274,1.274,0,0,0-.7-2.173l-5.814-.848L13.229.708a1.275,1.275,0,0,0-2.284,0Z" transform="translate(472.722 885.814)" fill="#d2cc29"/><path d="M10.945.708l-2.6,5.269-5.814.848A1.274,1.274,0,0,0,1.827,9l4.206,4.1-.995,5.79a1.273,1.273,0,0,0,1.847,1.341l5.2-2.734,5.2,2.734a1.274,1.274,0,0,0,1.847-1.341L18.14,13.1,22.346,9a1.274,1.274,0,0,0-.7-2.173l-5.814-.848L13.229.708a1.275,1.275,0,0,0-2.284,0Z" transform="translate(526.722 885.814)" fill="#d2cc29"/><path d="M10.945.708l-2.6,5.269-5.814.848A1.274,1.274,0,0,0,1.827,9l4.206,4.1-.995,5.79a1.273,1.273,0,0,0,1.847,1.341l5.2-2.734,5.2,2.734a1.274,1.274,0,0,0,1.847-1.341L18.14,13.1,22.346,9a1.274,1.274,0,0,0-.7-2.173l-5.814-.848L13.229.708a1.275,1.275,0,0,0-2.284,0Z" transform="translate(553.722 885.814)" fill="#d2cc29"/></g></svg>