<svg xmlns="http://www.w3.org/2000/svg" width="52" height="51" viewBox="0 0 52 51"><ellipse cx="26" cy="25.5" rx="26" ry="25.5" fill="#bf9437"/><path d="M23.166,8.607c.016.229.016.459.016.688A14.953,14.953,0,0,1,8.126,24.351,14.954,14.954,0,0,1,0,21.976a10.947,10.947,0,0,0,1.278.066,10.6,10.6,0,0,0,6.57-2.261A5.3,5.3,0,0,1,2.9,16.11a6.673,6.673,0,0,0,1,.082,5.6,5.6,0,0,0,1.393-.18,5.292,5.292,0,0,1-4.243-5.193v-.066a5.329,5.329,0,0,0,2.392.672A5.3,5.3,0,0,1,1.8,4.347,15.042,15.042,0,0,0,12.713,9.885a5.974,5.974,0,0,1-.131-1.212A5.3,5.3,0,0,1,21.74,5.052,10.419,10.419,0,0,0,25.1,3.774,5.277,5.277,0,0,1,22.773,6.69a10.608,10.608,0,0,0,3.047-.819,11.375,11.375,0,0,1-2.654,2.736Z" transform="translate(12.37 12.324)" fill="#fff"/></svg>